<svg width="286" height="110" viewBox="0 0 286 110" fill="none" xmlns="http://www.w3.org/2000/svg">
<circle cx="55" cy="55" r="55" fill="#FF8D28"/>
<path d="M11.7632 71.7577L11.6723 59.0934L50.1513 4.93335L69.5248 4.79431L69.9015 57.2939L90.2261 56.993L90.3269 71.0389L70.0023 71.3398L70.4722 100.443L53.8324 100.562L53.3626 71.4592L11.7632 71.7577ZM54.0786 22.1756L29.9661 57.5805L54.3315 57.4056L54.0786 22.1756Z" fill="white"/>
<path d="M111.555 37.5755C116.437 37.5755 120.382 39.1289 123.39 42.2357C126.399 45.2932 127.903 49.5835 127.903 55.1067V79.1473H117.547V56.5121C117.547 53.2574 116.733 50.767 115.106 49.0411C113.478 47.2657 111.259 46.3781 108.448 46.3781C105.588 46.3781 103.32 47.2657 101.643 49.0411C100.016 50.767 99.2019 53.2574 99.2019 56.5121V79.1473H88.8459V38.1673H99.2019V43.2713C100.583 41.496 102.333 40.1152 104.454 39.1289C106.624 38.0933 108.991 37.5755 111.555 37.5755Z" fill="#215A50"/>
<path d="M139.304 33.2852C137.479 33.2852 135.951 32.7181 134.718 31.5839C133.534 30.4003 132.943 28.9456 132.943 27.2196C132.943 25.4936 133.534 24.0635 134.718 22.9292C135.951 21.7457 137.479 21.1539 139.304 21.1539C141.129 21.1539 142.633 21.7457 143.816 22.9292C145.049 24.0635 145.666 25.4936 145.666 27.2196C145.666 28.9456 145.049 30.4003 143.816 31.5839C142.633 32.7181 141.129 33.2852 139.304 33.2852ZM144.408 38.1673V79.1473H134.052V38.1673H144.408Z" fill="#215A50"/>
<path d="M162.999 46.674V66.4982C162.999 67.879 163.319 68.89 163.96 69.5311C164.651 70.1228 165.785 70.4187 167.363 70.4187H172.171V79.1473H165.662C156.933 79.1473 152.569 74.9063 152.569 66.4243V46.674H147.687V38.1673H152.569V28.0332H162.999V38.1673H172.171V46.674H162.999Z" fill="#215A50"/>
<path d="M214.608 38.1673V79.1473H204.178V73.9693C202.846 75.7446 201.096 77.1501 198.926 78.1857C196.805 79.172 194.488 79.6651 191.973 79.6651C188.767 79.6651 185.932 78.9994 183.466 77.6679C181 76.2871 179.052 74.2899 177.622 71.6762C176.242 69.0133 175.551 65.8572 175.551 62.2079V38.1673H185.907V60.7285C185.907 63.9832 186.721 66.4982 188.348 68.2736C189.975 69.9995 192.195 70.8625 195.006 70.8625C197.866 70.8625 200.11 69.9995 201.737 68.2736C203.364 66.4982 204.178 63.9832 204.178 60.7285V38.1673H214.608Z" fill="#215A50"/>
<path d="M231.483 44.5288C232.815 42.359 234.541 40.6577 236.661 39.4248C238.831 38.192 241.297 37.5755 244.058 37.5755V48.4493H241.321C238.067 48.4493 235.601 49.2137 233.924 50.7424C232.297 52.2711 231.483 54.9341 231.483 58.7313V79.1473H221.127V38.1673H231.483V44.5288Z" fill="#215A50"/>
<path d="M285.43 57.7697C285.43 59.2491 285.331 60.5806 285.134 61.7641H255.176C255.422 64.7229 256.458 67.0407 258.283 68.7174C260.107 70.3941 262.351 71.2324 265.014 71.2324C268.861 71.2324 271.597 69.5804 273.225 66.2763H284.394C283.211 70.2215 280.942 73.4762 277.589 76.0405C274.236 78.5555 270.118 79.8131 265.236 79.8131C261.291 79.8131 257.74 78.9501 254.584 77.2241C251.477 75.4488 249.036 72.9584 247.261 69.753C245.535 66.5476 244.672 62.849 244.672 58.6573C244.672 54.4163 245.535 50.6931 247.261 47.4877C248.987 44.2822 251.403 41.8165 254.51 40.0905C257.617 38.3646 261.192 37.5016 265.236 37.5016C269.132 37.5016 272.608 38.3399 275.666 40.0166C278.773 41.6933 281.164 44.085 282.841 47.1918C284.567 50.2493 285.43 53.7752 285.43 57.7697ZM274.704 54.8108C274.655 52.1478 273.693 50.0273 271.819 48.4493C269.945 46.8219 267.652 46.0082 264.94 46.0082C262.376 46.0082 260.206 46.7973 258.431 48.3753C256.705 49.9041 255.644 52.0492 255.25 54.8108H274.704Z" fill="#215A50"/>
</svg>
