<svg width="32" height="32" viewBox="0 0 32 32" fill="none" xmlns="http://www.w3.org/2000/svg">
<path d="M4.80001 1.60001C4.37567 1.60001 3.9687 1.76858 3.66864 2.06864C3.36858 2.36869 3.20001 2.77566 3.20001 3.20001C3.20001 3.62435 3.36858 4.03132 3.66864 4.33138C3.9687 4.63144 4.37567 4.80001 4.80001 4.80001H6.75201L7.24001 6.75521C7.24486 6.77772 7.25019 6.80012 7.25601 6.82241L9.42881 15.5104L8.00001 16.9376C5.98401 18.9536 7.41121 22.4 10.2624 22.4H24C24.4244 22.4 24.8313 22.2314 25.1314 21.9314C25.4314 21.6313 25.6 21.2244 25.6 20.8C25.6 20.3757 25.4314 19.9687 25.1314 19.6686C24.8313 19.3686 24.4244 19.2 24 19.2H10.2624L11.8624 17.6H22.4C22.6971 17.5998 22.9882 17.517 23.2409 17.3607C23.4935 17.2045 23.6976 16.9809 23.8304 16.7152L28.6304 7.11521C28.7523 6.87133 28.8098 6.60037 28.7975 6.32802C28.7853 6.05567 28.7036 5.79097 28.5603 5.55904C28.417 5.32711 28.2168 5.13564 27.9788 5.0028C27.7407 4.86996 27.4726 4.80015 27.2 4.80001H10.048L9.55201 2.81121C9.46534 2.46521 9.26554 2.1581 8.98434 1.93865C8.70315 1.71921 8.3567 1.60002 8.00001 1.60001H4.80001ZM25.6 26.4C25.6 27.0365 25.3472 27.647 24.8971 28.0971C24.447 28.5471 23.8365 28.8 23.2 28.8C22.5635 28.8 21.953 28.5471 21.503 28.0971C21.0529 27.647 20.8 27.0365 20.8 26.4C20.8 25.7635 21.0529 25.153 21.503 24.7029C21.953 24.2529 22.5635 24 23.2 24C23.8365 24 24.447 24.2529 24.8971 24.7029C25.3472 25.153 25.6 25.7635 25.6 26.4ZM10.4 28.8C11.0365 28.8 11.647 28.5471 12.0971 28.0971C12.5472 27.647 12.8 27.0365 12.8 26.4C12.8 25.7635 12.5472 25.153 12.0971 24.7029C11.647 24.2529 11.0365 24 10.4 24C9.76349 24 9.15304 24.2529 8.70296 24.7029C8.25287 25.153 8.00001 25.7635 8.00001 26.4C8.00001 27.0365 8.25287 27.647 8.70296 28.0971C9.15304 28.5471 9.76349 28.8 10.4 28.8Z" fill="#6E3B3B"/>
</svg>
