<svg width="32" height="32" viewBox="0 0 32 32" fill="none" xmlns="http://www.w3.org/2000/svg">
<path d="M25.8094 28.375H18.5V22.375V21.375H17.5H14H13V22.375V28.375H6.1906V19.1969V18.1969H5.1906H3.83435C3.28351 18.1969 2.83435 17.7477 2.83435 17.1969C2.83435 16.9326 2.9402 16.6772 3.1287 16.4886C3.12879 16.4885 3.12887 16.4884 3.12896 16.4883L16 3.6267L28.871 16.4883C28.8711 16.4884 28.8711 16.4885 28.8712 16.4885C29.262 16.8795 29.2619 17.5129 28.8727 17.9037L28.8712 17.9052C28.6863 18.0916 28.4335 18.1969 28.1656 18.1969H26.8094H25.8094V19.1969V28.375Z" stroke="#6E3B3B" stroke-width="2"/>
</svg>
