<svg width="30" height="28" viewBox="0 0 30 28" fill="none" xmlns="http://www.w3.org/2000/svg">
<path d="M28.5781 13.7812L15.7062 0.918737C15.6135 0.825874 15.5035 0.752201 15.3823 0.701934C15.2611 0.651667 15.1312 0.625793 15 0.625793C14.8688 0.625793 14.7389 0.651667 14.6177 0.701934C14.4965 0.752201 14.3864 0.825874 14.2937 0.918737L1.42185 13.7812C1.04685 14.1562 0.834351 14.6656 0.834351 15.1969C0.834351 16.3 1.73123 17.1969 2.83435 17.1969H4.1906V26.375C4.1906 26.9281 4.63748 27.375 5.1906 27.375H13V20.375H16.5V27.375H24.8094C25.3625 27.375 25.8094 26.9281 25.8094 26.375V17.1969H27.1656C27.6968 17.1969 28.2062 16.9875 28.5812 16.6094C29.3594 15.8281 29.3594 14.5625 28.5781 13.7812Z" fill="#6E3B3B"/>
</svg>
