<svg width="48" height="48" viewBox="0 0 48 48" fill="none" xmlns="http://www.w3.org/2000/svg">
<path d="M22.5938 7.125H25.4062C25.6562 7.125 25.7812 7.25 25.7812 7.5V40.5C25.7812 40.75 25.6562 40.875 25.4062 40.875H22.5938C22.3437 40.875 22.2188 40.75 22.2188 40.5V7.5C22.2188 7.25 22.3437 7.125 22.5938 7.125Z" fill="#6E3B3B"/>
<path d="M8.25 22.2188H39.75C40 22.2188 40.125 22.3437 40.125 22.5938V25.4062C40.125 25.6562 40 25.7812 39.75 25.7812H8.25C8 25.7812 7.875 25.6562 7.875 25.4062V22.5938C7.875 22.3437 8 22.2188 8.25 22.2188Z" fill="#6E3B3B"/>
</svg>
