<svg width="20" height="19" viewBox="0 0 20 19" fill="none" xmlns="http://www.w3.org/2000/svg">
<path d="M18.7783 8.25723C19.5591 7.68637 19.1553 6.45 18.1881 6.45H13.3926C12.9576 6.45 12.5726 6.16888 12.4401 5.75462L10.9525 1.10316C10.6559 0.175984 9.34405 0.175985 9.04753 1.10316L7.5599 5.75462C7.42741 6.16888 7.04235 6.45 6.60742 6.45H1.78069C0.816594 6.45 0.410784 7.67988 1.18556 8.25363L5.1137 11.1626C5.45698 11.4168 5.60088 11.861 5.4719 12.2682L3.9945 16.9325C3.70173 17.8569 4.76376 18.6152 5.54295 18.0381L9.40488 15.1782C9.75843 14.9164 10.2416 14.9164 10.5951 15.1782L14.4452 18.0293C15.2255 18.6072 16.2886 17.8459 15.9928 16.9211L14.4945 12.2365C14.3634 11.8265 14.5093 11.3787 14.8568 11.1246L18.7783 8.25723Z" fill="#FFCE31"/>
</svg>
