<svg width="24" height="24" viewBox="0 0 24 24" fill="none" xmlns="http://www.w3.org/2000/svg">
<path d="M20.7783 11.2572C21.5591 10.6864 21.1553 9.45 20.1881 9.45H15.3926C14.9576 9.45 14.5726 9.16888 14.4401 8.75462L12.9525 4.10316C12.6559 3.17598 11.3441 3.17599 11.0475 4.10316L9.5599 8.75462C9.42741 9.16888 9.04235 9.45 8.60742 9.45H3.78069C2.81659 9.45 2.41078 10.6799 3.18556 11.2536L7.1137 14.1626C7.45698 14.4168 7.60088 14.861 7.4719 15.2682L5.9945 19.9325C5.70173 20.8569 6.76376 21.6152 7.54295 21.0381L11.4049 18.1782C11.7584 17.9164 12.2416 17.9164 12.5951 18.1782L16.4452 21.0293C17.2255 21.6072 18.2886 20.8459 17.9928 19.9211L16.4945 15.2365C16.3634 14.8265 16.5093 14.3787 16.8568 14.1246L20.7783 11.2572Z" fill="#333333" fill-opacity="0.1"/>
</svg>
