<svg width="32" height="32" viewBox="0 0 32 32" fill="none" xmlns="http://www.w3.org/2000/svg">
<path d="M7.72225 4.55784L7.5331 3.80001H6.75201H4.80001C4.64088 3.80001 4.48827 3.73679 4.37575 3.62427C4.26323 3.51175 4.20001 3.35914 4.20001 3.20001C4.20001 3.04088 4.26323 2.88826 4.37575 2.77574C4.48827 2.66322 4.64088 2.60001 4.80001 2.60001H7.99999C7.99999 2.60001 8 2.60001 8.00001 2.60001C8.13376 2.60002 8.26367 2.64471 8.36911 2.727C8.4744 2.80917 8.54926 2.92411 8.58184 3.05362C8.58189 3.05381 8.58194 3.05401 8.58199 3.05421L9.07773 5.04199L9.26678 5.80001H10.048H27.1995C27.3017 5.80006 27.4022 5.82624 27.4915 5.87605C27.5808 5.92587 27.6559 5.99767 27.7096 6.08464L28.5603 5.55904L27.7096 6.08465C27.7633 6.17161 27.7939 6.27087 27.7985 6.37301C27.8031 6.47514 27.7816 6.57675 27.7359 6.6682L22.936 16.268L22.9359 16.2682C22.8861 16.3679 22.8095 16.4517 22.7148 16.5103L23.2409 17.3607L22.7148 16.5103C22.6201 16.5689 22.5109 16.5999 22.3995 16.6H11.8624H11.4482L11.1553 16.8929L9.55531 18.4929L8.16945 19.8788C7.92998 19.1463 8.06257 18.2896 8.70672 17.6451L8.70712 17.6447L10.1355 16.2179L10.5364 15.8175L10.3989 15.2678L8.22613 6.57979L8.22618 6.57977L8.22358 6.56979C8.22141 6.56147 8.21941 6.55311 8.21761 6.54471L8.21418 6.52882L8.21025 6.51304L7.72225 4.55784ZM10.2624 21.4C9.35085 21.4 8.65098 20.8876 8.30247 20.2H10.2624H24C24.1591 20.2 24.3118 20.2632 24.4243 20.3757C24.5368 20.4883 24.6 20.6409 24.6 20.8C24.6 20.9591 24.5368 21.1117 24.4243 21.2243C24.3118 21.3368 24.1591 21.4 24 21.4H10.2624ZM24.6 26.4C24.6 26.7713 24.4525 27.1274 24.19 27.39C23.9274 27.6525 23.5713 27.8 23.2 27.8C22.8287 27.8 22.4726 27.6525 22.2101 27.39C21.9475 27.1274 21.8 26.7713 21.8 26.4C21.8 26.0287 21.9475 25.6726 22.2101 25.4101C22.4726 25.1475 22.8287 25 23.2 25C23.5713 25 23.9274 25.1475 24.19 25.4101C24.4525 25.6726 24.6 26.0287 24.6 26.4ZM9.41006 27.39L8.70296 28.0971L9.41006 27.39C9.14751 27.1274 9.00001 26.7713 9.00001 26.4C9.00001 26.0287 9.14751 25.6726 9.41006 25.4101C9.67261 25.1475 10.0287 25 10.4 25C10.7713 25 11.1274 25.1475 11.39 25.4101C11.6525 25.6726 11.8 26.0287 11.8 26.4C11.8 26.7713 11.6525 27.1274 11.39 27.39C11.1274 27.6525 10.7713 27.8 10.4 27.8C10.0287 27.8 9.67261 27.6525 9.41006 27.39Z" stroke="#6E3B3B" stroke-width="2"/>
</svg>
