<svg width="32" height="30" viewBox="0 0 32 30" fill="none" xmlns="http://www.w3.org/2000/svg">
<path d="M10.0454 8.98338H10.0455V8.97828C10.0455 6.7632 10.6106 5.03427 11.6677 3.71113C12.6827 2.44057 14.0843 1.78262 16 1.78262C17.9157 1.78262 19.3173 2.44057 20.3323 3.71113C21.3894 5.03427 21.9545 6.7632 21.9545 8.97828L21.9546 8.98338C21.9684 11.7 21.0675 13.762 19.3012 15.2864L19.2933 15.2933L19.2855 15.3003C18.742 15.7896 18.5604 16.4575 18.703 17.1395L18.7296 17.2666L18.7877 17.3827L19.3069 18.4191C19.5568 18.9366 19.9348 19.3544 20.4283 19.6508C20.8574 19.9085 21.6417 20.2181 22.6725 20.5753L22.6843 20.5794L22.6962 20.5832C22.7469 20.5993 23.7126 20.8987 25.5791 21.477C26.5138 21.7665 27.2271 21.9901 27.7207 22.1481C27.968 22.2272 28.1567 22.2888 28.2891 22.3335C28.4072 22.3733 28.4488 22.3893 28.449 22.3887C28.4491 22.3886 28.4485 22.3883 28.4474 22.3877L28.4624 22.3948L28.4934 22.4072C29.6422 22.8651 30.2392 23.277 30.494 23.5753C30.6167 23.8967 30.7492 24.53 30.8451 25.5751C30.928 26.4786 30.9784 27.6185 30.9944 29H1.00559C1.02161 27.6185 1.072 26.4786 1.15491 25.5751C1.25081 24.53 1.38335 23.8967 1.50605 23.5753C1.76085 23.277 2.35777 22.8651 3.50659 22.4072L3.53765 22.3948L3.55253 22.3877C3.55148 22.3883 3.55094 22.3886 3.55097 22.3887C3.55125 22.3893 3.59281 22.3733 3.71087 22.3335C3.84331 22.2888 4.03199 22.2272 4.27925 22.1481C4.77287 21.9901 5.48621 21.7665 6.42093 21.477C8.28738 20.8987 9.25311 20.5993 9.3038 20.5832L9.31568 20.5794L9.32746 20.5753C10.3583 20.2181 11.1426 19.9085 11.5717 19.6508C12.0652 19.3544 12.4431 18.9366 12.6931 18.4191L13.2123 17.3827L13.2704 17.2666L13.297 17.1395C13.4396 16.4575 13.258 15.7896 12.7145 15.3003L12.7067 15.2933L12.6988 15.2864C10.9325 13.762 10.0316 11.7 10.0454 8.98338Z" stroke="#6E3B3B" stroke-width="2"/>
</svg>
