<svg width="32" height="28" viewBox="0 0 32 28" fill="none" xmlns="http://www.w3.org/2000/svg">
<path d="M16.784 27.056L16.0199 26.4109C16.0174 26.4138 16.0144 26.4162 16.011 26.4178C16.0075 26.4193 16.0038 26.4202 16 26.4202C15.9962 26.4202 15.9925 26.4193 15.989 26.4177C15.9856 26.4162 15.9826 26.4138 15.9801 26.4109C12.7363 22.5591 9.7718 19.7765 7.37878 17.5304C6.51801 16.7224 5.73118 15.9839 5.03188 15.2899C2.3622 12.6407 1 10.6824 1 7.84C1 4.0811 4.11328 1 8 1C11.8867 1 15 4.0811 15 7.84H16H17C17 4.0811 20.1133 1 24 1C27.8867 1 31 4.0811 31 7.84C31 10.6824 29.6378 12.6407 26.9681 15.2899C26.2688 15.9839 25.482 16.7224 24.6212 17.5304C22.228 19.7767 19.2632 22.5595 16.0191 26.4119L16.784 27.056ZM16.784 27.056C19.9867 23.2529 22.8838 20.5336 25.2698 18.294C29.401 14.4163 32 11.9768 32 7.84C32 3.51 28.42 0 24 0C20.5949 0 17.6883 2.0832 16.533 5.01964L15.216 27.056C15.3123 27.1701 15.4324 27.2618 15.5678 27.3247C15.7032 27.3876 15.8507 27.4202 16 27.4202C16.1493 27.4202 16.2968 27.3876 16.4322 27.3247C16.5676 27.2618 16.6877 27.1701 16.784 27.056Z" stroke="#6E3B3B" stroke-width="2"/>
</svg>
